<svg width="77" height="50" viewBox="0 0 77 50" fill="none" xmlns="http://www.w3.org/2000/svg">
<circle cx="38.3623" cy="46.5517" r="3.44828" fill="#6DBAE0"/>
<circle cx="38.3623" cy="35.7759" r="3.44828" fill="#7DCBE6"/>
<circle cx="50.0002" cy="35.7759" r="3.44828" fill="#6DBAE0"/>
<circle cx="50.0002" cy="24.9999" r="3.44828" fill="#7DCBE6"/>
<circle cx="3.44828" cy="3.44828" r="3.44828" transform="matrix(-1 0 0 1 30.1729 32.3276)" fill="#6DBAE0"/>
<circle cx="3.44828" cy="3.44828" r="3.44828" transform="matrix(-1 0 0 1 30.1729 21.5518)" fill="#7DCBE6"/>
<circle cx="61.6377" cy="25" r="3.44828" fill="#6DBAE0"/>
<circle cx="61.6377" cy="14.2242" r="3.44828" fill="#7DCBE6"/>
<circle cx="3.44828" cy="3.44828" r="3.44828" transform="matrix(-1 0 0 1 18.5342 21.5518)" fill="#6DBAE0"/>
<circle cx="3.44828" cy="3.44828" r="3.44828" transform="matrix(-1 0 0 1 18.5342 10.7759)" fill="#7DCBE6"/>
<circle cx="73.2764" cy="14.2242" r="3.44828" fill="#6DBAE0"/>
<circle cx="73.2764" cy="3.44828" r="3.44828" fill="#7DCBE6"/>
<circle cx="3.44828" cy="3.44828" r="3.44828" transform="matrix(-1 0 0 1 6.89655 10.7759)" fill="#6DBAE0"/>
<circle cx="3.44828" cy="3.44828" r="3.44828" transform="matrix(-1 0 0 1 6.89655 0)" fill="#7DCBE6"/>
</svg>
