<svg width="85" height="83" viewBox="0 0 85 83" fill="none" xmlns="http://www.w3.org/2000/svg">
<g clip-path="url(#clip0_1163_9227)">
<path d="M77.0584 0H7.07357C3.21046 0.00354822 0.0797621 3.0976 0.0761719 6.91548V59.4824C0.0797621 63.3003 3.21046 66.3943 7.07357 66.3979H30.2451L27.0964 74.6972H23.8652C21.5495 74.6972 19.6682 76.5564 19.6682 78.845V81.6162C19.6682 82.3791 20.2965 83 21.0684 83H63.0636C63.8355 83 64.4638 82.3791 64.4638 81.6162V78.845C64.4638 76.5564 62.5825 74.6972 60.2668 74.6972H57.0355L53.8869 66.3979H77.0584C80.9215 66.3943 84.0522 63.3003 84.0558 59.4824V6.91548C84.0522 3.0976 80.9179 0.00354822 77.0584 0ZM7.07357 2.76761H77.0584C79.3741 2.76761 81.2554 4.62688 81.2554 6.91548V49.7993H2.87657V6.91548C2.87657 4.62688 4.75786 2.76761 7.07357 2.76761ZM61.6634 78.845V80.2288H22.4686V78.845C22.4686 78.0822 23.0969 77.4612 23.8688 77.4612H60.2632C61.0351 77.4648 61.6634 78.0822 61.6634 78.845ZM54.0413 74.6972H30.0871L33.2357 66.3979H50.8926L54.0413 74.6972ZM77.0584 63.6303H7.07357C4.75786 63.6303 2.87657 61.771 2.87657 59.4824V52.5669H81.259V59.4824C81.2554 61.7745 79.3741 63.6303 77.0584 63.6303Z" fill="#333463"/>
<path d="M42.0642 53.9502C39.7485 53.9502 37.8672 55.8095 37.8672 58.0981C37.8672 60.3867 39.7485 62.2459 42.0642 62.2459C44.3799 62.2459 46.2612 60.3867 46.2612 58.0981C46.2648 55.8095 44.3835 53.9502 42.0642 53.9502ZM42.0642 59.4819C41.2923 59.4819 40.664 58.8609 40.664 58.0981C40.664 57.3352 41.2923 56.7143 42.0642 56.7143C42.8361 56.7143 43.4644 57.3352 43.4644 58.0981C43.4644 58.8609 42.8397 59.4819 42.0642 59.4819Z" fill="#333463"/>
</g>
<defs>
<clipPath id="clip0_1163_9227">
<rect x="0.0761719" width="83.9796" height="83" fill="white"/>
</clipPath>
</defs>
</svg>
