<svg width="77" height="50" viewBox="0 0 77 50" fill="none" xmlns="http://www.w3.org/2000/svg">
<circle cx="38.4385" cy="46.5517" r="3.44828" fill="#FF5454"/>
<circle cx="38.4385" cy="35.7759" r="3.44828" fill="#FF7575"/>
<circle cx="50.0772" cy="35.7759" r="3.44828" fill="#FF5454"/>
<circle cx="50.0772" cy="25" r="3.44828" fill="#FF7575"/>
<circle cx="3.44828" cy="3.44828" r="3.44828" transform="matrix(-1 0 0 1 30.248 32.3276)" fill="#FF5454"/>
<circle cx="3.44828" cy="3.44828" r="3.44828" transform="matrix(-1 0 0 1 30.248 21.5518)" fill="#FF7575"/>
<circle cx="61.7139" cy="25" r="3.44828" fill="#FF5454"/>
<circle cx="61.7139" cy="14.2242" r="3.44828" fill="#FF7575"/>
<circle cx="3.44828" cy="3.44828" r="3.44828" transform="matrix(-1 0 0 1 18.6113 21.5518)" fill="#FF5454"/>
<circle cx="3.44828" cy="3.44828" r="3.44828" transform="matrix(-1 0 0 1 18.6113 10.7759)" fill="#FF7575"/>
<circle cx="73.3526" cy="14.2242" r="3.44828" fill="#FF5454"/>
<circle cx="73.3526" cy="3.44828" r="3.44828" fill="#FF7575"/>
<circle cx="3.44828" cy="3.44828" r="3.44828" transform="matrix(-1 0 0 1 6.97266 10.7759)" fill="#FF5454"/>
<circle cx="3.44828" cy="3.44828" r="3.44828" transform="matrix(-1 0 0 1 6.97266 0)" fill="#FF7575"/>
</svg>
