<svg width="76" height="75" viewBox="0 0 76 75" fill="none" xmlns="http://www.w3.org/2000/svg">
<rect x="1.57617" y="1.5" width="72" height="72" stroke="#333463" stroke-width="3"/>
<rect x="1.57617" y="2.28088" width="12.8978" height="71.2192" stroke="#333463" stroke-width="3"/>
<rect x="60.6797" y="2.28088" width="12.8978" height="71.2192" stroke="#333463" stroke-width="3"/>
<path d="M30.0283 24.3381L49.7109 35.7018L30.0283 47.0656L30.0283 24.3381Z" stroke="#333463" stroke-width="3"/>
<line x1="1.06836" y1="9.87488" x2="15.974" y2="9.87488" stroke="#333463" stroke-width="2"/>
<line x1="59.6758" y1="9.87488" x2="74.5814" y2="9.87488" stroke="#333463" stroke-width="2"/>
<line x1="1.06836" y1="18.8802" x2="15.974" y2="18.8802" stroke="#333463" stroke-width="2"/>
<line x1="59.6758" y1="18.8802" x2="74.5814" y2="18.8802" stroke="#333463" stroke-width="2"/>
<line x1="1.06836" y1="27.8856" x2="15.974" y2="27.8856" stroke="#333463" stroke-width="2"/>
<line x1="59.6758" y1="27.8856" x2="74.5814" y2="27.8856" stroke="#333463" stroke-width="2"/>
<line x1="1.06836" y1="36.8909" x2="15.974" y2="36.8909" stroke="#333463" stroke-width="2"/>
<line x1="59.6758" y1="36.8909" x2="74.5814" y2="36.8909" stroke="#333463" stroke-width="2"/>
<line x1="1.06836" y1="45.8962" x2="15.974" y2="45.8962" stroke="#333463" stroke-width="2"/>
<line x1="59.6758" y1="45.8962" x2="74.5814" y2="45.8962" stroke="#333463" stroke-width="2"/>
<line x1="1.06836" y1="54.9016" x2="15.974" y2="54.9016" stroke="#333463" stroke-width="2"/>
<line x1="59.6758" y1="54.9016" x2="74.5814" y2="54.9016" stroke="#333463" stroke-width="2"/>
<line x1="1.06836" y1="63.9069" x2="15.974" y2="63.9069" stroke="#333463" stroke-width="2"/>
<line x1="59.6758" y1="63.9069" x2="74.5814" y2="63.9069" stroke="#333463" stroke-width="2"/>
</svg>
