<svg width="186" height="48" viewBox="0 0 186 48" fill="none" xmlns="http://www.w3.org/2000/svg">
<path d="M22.405 48L3.42859 36.5759V14.0078L15.1976 20.9805V29.9144L22.405 34.0545V48Z" fill="#00498C"/>
<path d="M43.1152 11.2996L31.3766 18.3658L24.0171 14.07L16.6577 18.3658L4.94946 11.2996L24.0171 0L43.1152 11.2996Z" fill="#00498C"/>
<path d="M25.6591 48L44.6051 36.5759V14.0078L32.836 20.9805V29.9144L25.6591 34.0545V48Z" fill="#00498C"/>
<path d="M65.4297 33V20.2734H68.2891V22.4297H68.4531C68.9688 20.9766 70.2578 20.1094 71.9453 20.1094C73.6797 20.1094 74.8984 20.9766 75.3906 22.4297H75.5312C76.0938 21.0234 77.5 20.1094 79.3516 20.1094C81.6719 20.1094 83.3125 21.6094 83.3125 24.4453V33H80.3359V24.9141C80.3359 23.3203 79.375 22.6172 78.1562 22.6172C76.6797 22.6172 75.8359 23.625 75.8359 25.0547V33H72.9297V24.7969C72.9297 23.4844 72.0391 22.6172 70.7734 22.6172C69.4844 22.6172 68.4297 23.6719 68.4297 25.2656V33H65.4297ZM91.2203 33.2578C87.3766 33.2578 85.0328 30.7031 85.0328 26.7188C85.0328 22.7812 87.4234 20.1094 91.0562 20.1094C94.1734 20.1094 96.8687 22.0547 96.8687 26.5312V27.4688H87.9859C88.0211 29.6367 89.2984 30.9141 91.2437 30.9141C92.5562 30.9141 93.4469 30.3516 93.8219 29.6016H96.7516C96.2125 31.8047 94.1734 33.2578 91.2203 33.2578ZM88.0094 25.4297H94.0094C93.9859 23.6953 92.8375 22.4297 91.1031 22.4297C89.2984 22.4297 88.1031 23.8008 88.0094 25.4297ZM104.941 20.2734V22.5703H102.433V29.1797C102.433 30.3984 103.042 30.6562 103.792 30.6562C104.144 30.6562 104.73 30.6328 105.105 30.6094V33.0469C104.753 33.1172 104.167 33.1641 103.417 33.1641C101.167 33.1641 99.4328 32.0625 99.4562 29.6719V22.5703H97.6281V20.2734H99.4562V17.2266H102.433V20.2734H104.941ZM106.052 29.4141C106.052 26.5547 108.419 25.7109 110.786 25.5703C111.665 25.5117 113.493 25.4062 114.044 25.3828V24.375C114.044 23.1094 113.223 22.3828 111.747 22.3828C110.411 22.3828 109.591 22.9922 109.356 23.9062H106.473C106.684 21.75 108.63 20.1094 111.817 20.1094C114.231 20.1094 117.02 21.0938 117.02 24.4922V33H114.161V31.2422H114.067C113.505 32.3203 112.309 33.2578 110.317 33.2578C107.88 33.2578 106.052 31.9219 106.052 29.4141ZM108.934 29.3906C108.934 30.4922 109.825 31.0547 111.091 31.0547C112.895 31.0547 114.067 29.8594 114.067 28.4297V27.375L111.255 27.5625C109.825 27.6797 108.934 28.2656 108.934 29.3906ZM135.695 20.2734L131.148 33H127.867L123.32 20.2734H126.508L129.438 29.7422H129.578L132.531 20.2734H135.695ZM136.97 33V20.2734H139.97V33H136.97ZM138.494 18.4688C137.556 18.4688 136.759 17.7422 136.759 16.8281C136.759 15.9375 137.556 15.2109 138.494 15.2109C139.455 15.2109 140.228 15.9375 140.228 16.8281C140.228 17.7422 139.455 18.4688 138.494 18.4688ZM149.448 23.9062C149.261 22.9453 148.464 22.3359 147.198 22.3359C145.909 22.3359 144.972 22.9688 144.995 23.8359C144.972 24.4922 145.511 24.9844 146.8 25.2891L148.956 25.7344C151.37 26.2734 152.519 27.375 152.542 29.2031C152.519 31.5938 150.433 33.2578 147.105 33.2578C143.87 33.2578 141.948 31.8047 141.644 29.3672H144.691C144.878 30.4453 145.722 30.9844 147.105 30.9844C148.534 30.9844 149.495 30.3984 149.495 29.4609C149.495 28.7344 148.909 28.2656 147.644 27.9844L145.605 27.5391C143.238 27.0703 142.019 25.8281 142.019 24C142.019 21.6562 144.034 20.1094 147.152 20.1094C150.198 20.1094 152.073 21.5859 152.284 23.9062H149.448ZM154.216 33V20.2734H157.216V33H154.216ZM155.739 18.4688C154.802 18.4688 154.005 17.7422 154.005 16.8281C154.005 15.9375 154.802 15.2109 155.739 15.2109C156.7 15.2109 157.473 15.9375 157.473 16.8281C157.473 17.7422 156.7 18.4688 155.739 18.4688ZM165.03 33.2578C161.327 33.2578 158.936 30.6328 158.936 26.6953C158.936 22.7344 161.327 20.1094 165.03 20.1094C168.756 20.1094 171.123 22.7344 171.123 26.6953C171.123 30.6328 168.756 33.2578 165.03 33.2578ZM165.053 30.8672C167.092 30.8672 168.1 29.0156 168.1 26.6719C168.1 24.3516 167.092 22.4766 165.053 22.4766C162.967 22.4766 161.959 24.3516 161.959 26.6719C161.959 29.0156 162.967 30.8672 165.053 30.8672ZM175.844 25.5469V33H172.844V20.2734H175.703V22.4297H175.867C176.453 21 177.742 20.1094 179.641 20.1094C182.289 20.1094 184.023 21.8438 184 24.8906V33H181.023V25.3594C181.023 23.6484 180.109 22.6406 178.539 22.6406C176.945 22.6406 175.844 23.6953 175.844 25.5469Z" fill="black"/>
</svg>
